<?xml version="1.0" encoding="UTF-8" standalone="no"?><!DOCTYPE svg PUBLIC "-//W3C//DTD SVG 1.1//EN" "http://www.w3.org/Graphics/SVG/1.1/DTD/svg11.dtd"><svg width="2500px" height="698px" version="1.1" xmlns="http://www.w3.org/2000/svg" xmlns:xlink="http://www.w3.org/1999/xlink" xml:space="preserve" xmlns:serif="http://www.serif.com/" style="fill-rule:evenodd;clip-rule:evenodd;stroke-linejoin:round;stroke-miterlimit:2;"><g id="Layer-1" serif:id="Layer 1" transform="matrix(4.16667,0,0,4.16667,-400,-926)"><g><g transform="matrix(0.932432,0,0,0.932432,18.7634,23.2399)"><g transform="matrix(1,0,0,1,370.882,339.839)"><path d="M0,-14.767C0,-21.581 -0.189,-26.03 -0.378,-30.005L12.021,-30.005L12.494,-21.487L12.873,-21.487C15.239,-28.206 20.918,-31.046 25.367,-31.046C26.691,-31.046 27.354,-31.046 28.396,-30.857L28.396,-17.322C27.354,-17.511 26.124,-17.701 24.515,-17.701C19.214,-17.701 15.618,-14.861 14.671,-10.413C14.482,-9.466 14.387,-8.329 14.387,-7.195L14.387,16.279L0,16.279L0,-14.767Z" style="fill:white;fill-rule:nonzero;"/></g><g transform="matrix(1,0,0,1,434.106,338.135)"><path d="M0,-10.412C0,-13.914 -1.514,-19.782 -8.14,-19.782C-14.197,-19.782 -16.658,-14.293 -17.037,-10.412L0,-10.412ZM-16.942,-0.568C-16.469,5.395 -10.601,8.234 -3.88,8.234C1.042,8.234 5.017,7.572 8.897,6.342L10.79,16.09C6.058,17.984 0.284,18.93 -5.963,18.93C-21.675,18.93 -30.667,9.844 -30.667,-4.639C-30.667,-16.375 -23.378,-29.342 -7.288,-29.342C7.667,-29.342 13.346,-17.699 13.346,-6.247C13.346,-3.786 13.062,-1.609 12.873,-0.568L-16.942,-0.568Z" style="fill:white;fill-rule:nonzero;"/></g><g transform="matrix(1,0,0,1,470.451,347.41)"><path d="M0,-11.168C0,-10.033 0.095,-8.992 0.284,-8.14C1.23,-4.26 4.543,-1.324 8.708,-1.324C14.955,-1.324 18.646,-6.531 18.646,-14.387C18.646,-21.77 15.333,-27.354 8.897,-27.354C4.827,-27.354 1.23,-24.324 0.284,-20.066C0.095,-19.309 0,-18.361 0,-17.51L0,-11.168ZM-14.387,-22.053C-14.387,-28.111 -14.576,-33.316 -14.766,-37.576L-2.272,-37.576L-1.609,-31.14L-1.42,-31.14C1.987,-36.062 7.288,-38.617 14.008,-38.617C24.136,-38.617 33.222,-29.814 33.222,-15.049C33.222,1.799 22.527,9.749 12.21,9.749C6.625,9.749 2.271,7.478 0.189,4.449L0,4.449L0,27.449L-14.387,27.449L-14.387,-22.053Z" style="fill:white;fill-rule:nonzero;"/></g><g transform="matrix(1,0,0,1,540.961,338.135)"><path d="M0,-10.412C0,-13.914 -1.514,-19.782 -8.14,-19.782C-14.197,-19.782 -16.658,-14.293 -17.037,-10.412L0,-10.412ZM-16.942,-0.568C-16.469,5.395 -10.601,8.234 -3.88,8.234C1.041,8.234 5.017,7.572 8.897,6.342L10.79,16.09C6.058,17.984 0.284,18.93 -5.963,18.93C-21.675,18.93 -30.667,9.844 -30.667,-4.639C-30.667,-16.375 -23.378,-29.342 -7.288,-29.342C7.667,-29.342 13.346,-17.699 13.346,-6.247C13.346,-3.786 13.062,-1.609 12.873,-0.568L-16.942,-0.568Z" style="fill:white;fill-rule:nonzero;"/></g><g transform="matrix(1,0,0,1,587.528,331.698)"><path d="M0,2.556C-7.572,2.461 -13.44,4.259 -13.44,9.844C-13.44,13.535 -10.979,15.333 -7.761,15.333C-4.165,15.333 -1.23,12.968 -0.284,10.034C-0.095,9.277 0,8.424 0,7.573L0,2.556ZM1.704,24.42L0.852,19.783L0.568,19.783C-2.461,23.474 -7.193,25.461 -12.683,25.461C-22.054,25.461 -27.638,18.647 -27.638,11.264C-27.638,-0.757 -16.848,-6.53 -0.473,-6.436L-0.473,-7.098C-0.473,-9.559 -1.798,-13.061 -8.897,-13.061C-13.63,-13.061 -18.646,-11.452 -21.675,-9.559L-24.325,-18.835C-21.107,-20.633 -14.766,-22.905 -6.342,-22.905C9.086,-22.905 14.008,-13.819 14.008,-2.934L14.008,13.158C14.008,17.605 14.197,21.865 14.671,24.42L1.704,24.42Z" style="fill:white;fill-rule:nonzero;"/></g><g transform="matrix(1,0,0,1,628.227,357.064)"><path d="M0,-60.481L0,-47.23L10.317,-47.23L10.317,-36.628L0,-36.628L0,-19.877C0,-14.292 1.325,-11.736 5.679,-11.736C7.478,-11.736 8.897,-11.925 9.938,-12.115L10.033,-1.23C8.14,-0.472 4.732,0 0.663,0C-3.976,0 -7.856,-1.609 -10.127,-3.974C-12.778,-6.719 -14.103,-11.168 -14.103,-17.699L-14.103,-36.628L-20.255,-36.628L-20.255,-47.23L-14.103,-47.23L-14.103,-57.263L0,-60.481Z" style="fill:white;fill-rule:nonzero;"/></g><g transform="matrix(1,0,0,1,674.415,338.135)"><path d="M0,-10.412C0,-13.914 -1.514,-19.782 -8.14,-19.782C-14.197,-19.782 -16.658,-14.293 -17.037,-10.412L0,-10.412ZM-16.942,-0.568C-16.469,5.395 -10.601,8.234 -3.88,8.234C1.041,8.234 5.017,7.572 8.897,6.342L10.79,16.09C6.058,17.984 0.284,18.93 -5.963,18.93C-21.675,18.93 -30.667,9.844 -30.667,-4.639C-30.667,-16.375 -23.378,-29.342 -7.288,-29.342C7.667,-29.342 13.346,-17.699 13.346,-6.247C13.346,-3.786 13.062,-1.609 12.873,-0.568L-16.942,-0.568Z" style="fill:white;fill-rule:nonzero;"/></g><g transform="matrix(1,0,0,1,696.372,339.839)"><path d="M0,-14.767C0,-21.581 -0.189,-26.03 -0.378,-30.005L12.021,-30.005L12.494,-21.487L12.873,-21.487C15.239,-28.206 20.918,-31.046 25.367,-31.046C26.691,-31.046 27.354,-31.046 28.396,-30.857L28.396,-17.322C27.354,-17.511 26.124,-17.701 24.515,-17.701C19.214,-17.701 15.618,-14.861 14.671,-10.413C14.482,-9.466 14.387,-8.329 14.387,-7.195L14.387,16.279L0,16.279L0,-14.767Z" style="fill:white;fill-rule:nonzero;"/></g></g><g transform="matrix(0.932432,0,0,0.932432,18.7634,23.2399)"><g transform="matrix(1,0,0,1,92.8018,334.573)"><path d="M0,0.19C0,10.222 5.774,17.794 13.914,17.794C21.864,17.794 27.827,10.318 27.827,0.001C27.827,-7.76 23.947,-17.604 14.103,-17.604C4.259,-17.604 0,-8.518 0,0.19M36.346,-0.284C36.346,16.659 24.609,24.042 13.535,24.042C1.136,24.042 -8.424,14.955 -8.424,0.474C-8.424,-14.86 1.609,-23.852 14.292,-23.852C27.449,-23.852 36.346,-14.291 36.346,-0.284" style="fill:white;fill-rule:nonzero;"/></g><g transform="matrix(1,0,0,1,147.886,348.108)"><path d="M0,-9.18C0,-7.95 0.189,-6.815 0.378,-5.774C1.893,0.001 6.91,3.976 12.873,3.976C21.675,3.976 26.786,-3.217 26.786,-13.724C26.786,-22.905 21.959,-30.761 13.156,-30.761C7.478,-30.761 2.177,-26.691 0.568,-20.444C0.284,-19.403 0,-18.172 0,-17.036L0,-9.18ZM-8.234,-21.391C-8.234,-27.258 -8.424,-31.992 -8.613,-36.345L-1.136,-36.345L-0.757,-28.489L-0.568,-28.489C2.839,-34.074 8.234,-37.387 15.712,-37.387C26.786,-37.387 35.115,-28.016 35.115,-14.102C35.115,2.367 25.083,10.507 14.292,10.507C8.234,10.507 2.934,7.857 0.189,3.313L0,3.313L0,28.207L-8.234,28.207L-8.234,-21.391Z" style="fill:white;fill-rule:nonzero;"/></g><g transform="matrix(1,0,0,1,222.562,339.022)"><path d="M0,-8.803C0.094,-14.103 -2.177,-22.338 -11.547,-22.338C-19.971,-22.338 -23.663,-14.576 -24.325,-8.803L0,-8.803ZM-24.42,-2.84C-24.23,8.424 -17.037,13.062 -8.708,13.062C-2.745,13.062 0.852,12.021 3.975,10.695L5.395,16.658C2.461,17.984 -2.556,19.498 -9.844,19.498C-23.947,19.498 -32.371,10.222 -32.371,-3.596C-32.371,-17.416 -24.23,-28.301 -10.885,-28.301C4.07,-28.301 8.045,-15.144 8.045,-6.72C8.045,-5.016 7.856,-3.692 7.761,-2.84L-24.42,-2.84Z" style="fill:white;fill-rule:nonzero;"/></g><g transform="matrix(1,0,0,1,240.922,344.132)"><path d="M0,-19.97C0,-24.702 -0.095,-28.583 -0.379,-32.369L7.004,-32.369L7.477,-24.798L7.667,-24.798C9.938,-29.152 15.238,-33.411 22.811,-33.411C29.152,-33.411 38.996,-29.624 38.996,-13.913L38.996,13.441L30.667,13.441L30.667,-12.966C30.667,-20.349 27.921,-26.501 20.065,-26.501C14.576,-26.501 10.317,-22.62 8.897,-17.983C8.519,-16.942 8.329,-15.522 8.329,-14.103L8.329,13.441L0,13.441L0,-19.97Z" style="fill:white;fill-rule:nonzero;"/></g></g><g transform="matrix(0.932432,0,0,0.932432,323.888,276.584)"><g><path d="M0,90.429C-9.377,91.578 -18.892,93.933 -28.263,97.423L-22.805,79.736C-15.485,77.394 -8.121,75.838 -0.846,75.106C6.282,74.387 13.292,74.463 20.065,75.274L26.501,90.439C18.047,89.337 9.134,89.308 0,90.429M-13.976,51.126C-10.052,50.417 -6.139,49.912 -2.251,49.662C1.595,49.413 5.408,49.416 9.172,49.611L14.991,63.322C9.611,62.959 4.102,62.993 -1.488,63.464C-7.168,63.943 -12.9,64.868 -18.631,66.21L-13.976,51.126ZM3.914,37.226C1.647,37.193 -0.636,37.224 -2.931,37.331C-5.243,37.441 -7.563,37.627 -9.888,37.878L-3.961,18.673L3.914,37.226ZM22.966,51.353L17.717,38.307L-0.243,-6.364C3.771,-8.53 6.498,-12.772 6.498,-17.653C6.498,-24.733 0.758,-30.473 -6.322,-30.473C-13.403,-30.473 -19.143,-24.733 -19.143,-17.653C-19.143,-12.151 -15.671,-7.472 -10.804,-5.653L-24.629,40.413L-29.004,54.957L-48.837,120.902C-33.21,110.234 -16.093,103.691 0.604,101.378C16.544,99.171 31.846,100.859 45.08,106.316L22.966,51.353Z" style="fill:white;fill-rule:nonzero;"/></g></g><g transform="matrix(0.932432,0,0,0.932432,18.7634,23.2399)"><g transform="matrix(1,0,0,1,411.652,223.829)"><path d="M0,59.854C-0.466,59.854 -0.94,59.794 -1.412,59.669C-4.348,58.892 -6.098,55.881 -5.32,52.945C-3.362,45.552 -2.369,37.901 -2.369,30.206C-2.369,22.519 -3.359,14.879 -5.311,7.498C-6.087,4.561 -4.336,1.55 -1.4,0.774C1.538,0 4.547,1.749 5.324,4.685C7.518,12.984 8.631,21.571 8.631,30.206C8.631,38.851 7.515,47.45 5.313,55.761C4.661,58.226 2.435,59.854 0,59.854" style="fill:rgb(140,198,63);fill-rule:nonzero;"/></g><g transform="matrix(1,0,0,1,391.832,229.092)"><path d="M0,49.329C-0.466,49.329 -0.94,49.269 -1.412,49.144C-4.349,48.366 -6.098,45.355 -5.32,42.419C-3.815,36.739 -3.052,30.859 -3.052,24.942C-3.052,19.036 -3.812,13.167 -5.311,7.496C-6.087,4.559 -4.335,1.55 -1.398,0.773C1.539,0 4.548,1.749 5.324,4.685C7.065,11.272 7.948,18.088 7.948,24.942C7.948,31.81 7.062,38.639 5.313,45.237C4.66,47.701 2.434,49.329 0,49.329" style="fill:rgb(140,198,63);fill-rule:nonzero;"/></g><g transform="matrix(1,0,0,1,249.547,229.085)"><path d="M0,49.269C-2.437,49.269 -4.664,47.638 -5.315,45.17C-7.05,38.591 -7.93,31.788 -7.93,24.949C-7.93,18.09 -7.046,11.272 -5.303,4.684C-4.526,1.748 -1.515,0 1.421,0.773C4.357,1.55 6.108,4.56 5.331,7.497C3.831,13.167 3.07,19.04 3.07,24.949C3.07,30.841 3.828,36.702 5.322,42.366C6.096,45.302 4.343,48.312 1.406,49.086C0.936,49.21 0.464,49.269 0,49.269" style="fill:rgb(140,198,63);fill-rule:nonzero;"/></g><g transform="matrix(1,0,0,1,229.722,223.835)"><path d="M0,59.763C-2.437,59.763 -4.664,58.132 -5.314,55.665C-7.5,47.383 -8.607,38.816 -8.607,30.2C-8.607,21.569 -7.496,12.987 -5.304,4.692C-4.529,1.755 -1.522,0 1.418,0.78C4.355,1.556 6.107,4.566 5.331,7.502C3.381,14.88 2.393,22.516 2.393,30.2C2.393,37.868 3.378,45.492 5.321,52.859C6.096,55.796 4.344,58.805 1.406,59.58C0.937,59.704 0.464,59.763 0,59.763" style="fill:rgb(140,198,63);fill-rule:nonzero;"/></g><g transform="matrix(1,0,0,1,209.898,218.591)"><path d="M0,70.251C-2.437,70.251 -4.664,68.62 -5.314,66.153C-7.95,56.167 -9.286,45.834 -9.286,35.443C-9.286,25.039 -7.946,14.692 -5.304,4.692C-4.528,1.755 -1.522,0 1.418,0.779C4.354,1.555 6.106,4.564 5.331,7.501C2.931,16.586 1.714,25.987 1.714,35.443C1.714,44.888 2.928,54.275 5.321,63.347C6.096,66.284 4.344,69.293 1.407,70.068C0.937,70.192 0.464,70.251 0,70.251" style="fill:rgb(140,198,63);fill-rule:nonzero;"/></g><g transform="matrix(1,0,0,1,190.073,213.347)"><path d="M0,80.739C-2.437,80.739 -4.664,79.108 -5.314,76.641C-8.399,64.95 -9.964,52.853 -9.964,40.687C-9.964,28.509 -8.396,16.398 -5.305,4.692C-4.53,1.756 -1.52,0 1.417,0.779C4.354,1.554 6.106,4.564 5.331,7.501C2.481,18.291 1.036,29.456 1.036,40.687C1.036,51.907 2.478,63.059 5.321,73.835C6.096,76.772 4.344,79.781 1.407,80.556C0.937,80.68 0.464,80.739 0,80.739" style="fill:rgb(140,198,63);fill-rule:nonzero;"/></g><g transform="matrix(1,0,0,1,372.009,234.347)"><path d="M0,38.81C-0.466,38.81 -0.94,38.75 -1.412,38.625C-4.348,37.848 -6.098,34.837 -5.32,31.901C-4.266,27.919 -3.731,23.811 -3.731,19.687C-3.731,15.572 -4.263,11.472 -5.311,7.502C-6.086,4.566 -4.334,1.556 -1.397,0.781C1.543,0 4.549,1.758 5.325,4.694C6.615,9.58 7.269,14.624 7.269,19.687C7.269,24.761 6.611,29.818 5.313,34.717C4.661,37.182 2.435,38.81 0,38.81" style="fill:rgb(140,198,63);fill-rule:nonzero;"/></g><g transform="matrix(1,0,0,1,352.19,239.614)"><path d="M0,28.28C-0.466,28.28 -0.94,28.22 -1.412,28.095C-4.348,27.318 -6.098,24.307 -5.32,21.371C-4.72,19.105 -4.416,16.766 -4.416,14.42C-4.416,12.08 -4.717,9.751 -5.311,7.497C-6.085,4.559 -4.332,1.551 -1.395,0.776C1.543,0 4.552,1.757 5.326,4.692C6.161,7.861 6.584,11.134 6.584,14.42C6.584,17.717 6.157,21.003 5.313,24.187C4.66,26.652 2.435,28.28 0,28.28" style="fill:rgb(140,198,63);fill-rule:nonzero;"/></g><g transform="matrix(1,0,0,1,289.199,239.57)"><path d="M0,28.295C-2.437,28.295 -4.663,26.664 -5.314,24.198C-6.152,21.027 -6.576,17.752 -6.576,14.464C-6.576,11.164 -6.148,7.873 -5.303,4.685C-4.525,1.748 -1.515,0 1.422,0.777C4.359,1.556 6.108,4.566 5.33,7.503C4.729,9.773 4.424,12.114 4.424,14.464C4.424,16.805 4.726,19.135 5.321,21.39C6.097,24.327 4.344,27.336 1.408,28.111C0.937,28.236 0.464,28.295 0,28.295" style="fill:rgb(140,198,63);fill-rule:nonzero;"/></g><g transform="matrix(1,0,0,1,269.376,234.33)"><path d="M0,38.779C-2.437,38.779 -4.663,37.148 -5.314,34.681C-6.603,29.801 -7.256,24.762 -7.256,19.704C-7.256,14.635 -6.599,9.582 -5.303,4.683C-4.526,1.747 -1.519,0 1.421,0.772C4.357,1.55 6.108,4.559 5.331,7.496C4.278,11.477 3.744,15.585 3.744,19.704C3.744,23.815 4.275,27.91 5.321,31.875C6.097,34.811 4.344,37.821 1.407,38.595C0.937,38.72 0.464,38.779 0,38.779" style="fill:rgb(140,198,63);fill-rule:nonzero;"/></g><g transform="matrix(1,0,0,1,451.291,213.306)"><path d="M0,80.902C-0.466,80.902 -0.94,80.842 -1.412,80.717C-4.348,79.94 -6.098,76.929 -5.32,73.993C-2.456,63.179 -1.003,51.988 -1.003,40.728C-1.003,29.479 -2.453,18.298 -5.311,7.497C-6.088,4.56 -4.337,1.549 -1.4,0.772C1.537,0 4.546,1.746 5.323,4.682C8.424,16.402 9.997,28.529 9.997,40.728C9.997,52.938 8.421,65.078 5.313,76.809C4.661,79.274 2.435,80.902 0,80.902" style="fill:rgb(140,198,63);fill-rule:nonzero;"/></g><g transform="matrix(1,0,0,1,431.473,218.565)"><path d="M0,70.381C-0.466,70.381 -0.939,70.321 -1.411,70.196C-4.348,69.419 -6.098,66.408 -5.32,63.472C-2.91,54.368 -1.688,44.946 -1.688,35.469C-1.688,26.002 -2.907,16.591 -5.311,7.498C-6.087,4.561 -4.336,1.551 -1.399,0.775C1.536,0 4.547,1.75 5.324,4.686C7.97,14.696 9.313,25.054 9.313,35.469C9.313,45.897 7.967,56.266 5.313,66.288C4.661,68.752 2.435,70.381 0,70.381" style="fill:rgb(140,198,63);fill-rule:nonzero;"/></g></g></g></g></svg>