<?xml version="1.0" encoding="UTF-8" standalone="no"?><!DOCTYPE svg PUBLIC "-//W3C//DTD SVG 1.1//EN" "http://www.w3.org/Graphics/SVG/1.1/DTD/svg11.dtd"><svg width="800px" height="800px" version="1.1" xmlns="http://www.w3.org/2000/svg" xmlns:xlink="http://www.w3.org/1999/xlink" xml:space="preserve" xmlns:serif="http://www.serif.com/" style="fill-rule:evenodd;clip-rule:evenodd;stroke-linejoin:round;stroke-miterlimit:2;"><g transform="matrix(1.36308,0,0,1.36308,-232.742,-131.588)"><g transform="matrix(4.16667,0,0,4.16667,757.65,146.537)"><path d="M0,116.857C0,123.485 -5.373,128.857 -12,128.857L-128.857,128.857C-135.485,128.857 -140.857,123.485 -140.857,116.857L-140.857,0C-140.857,-6.627 -135.485,-12 -128.857,-12L-12,-12C-5.373,-12 0,-6.627 0,0L0,116.857Z" style="fill:rgb(6,103,56);fill-rule:nonzero;"/></g><g transform="matrix(0,574.158,574.158,0,464.2,102.907)"><path d="M-0,-0.415C-0,-0.462 0.038,-0.5 0.085,-0.5L0.915,-0.5C0.962,-0.5 1,-0.462 1,-0.415L1,0.415C1,0.462 0.962,0.5 0.915,0.5L0.085,0.5C0.038,0.5 -0,0.462 -0,0.415L-0,-0.415Z" style="fill:url(#_Linear1);fill-rule:nonzero;"/></g><g transform="matrix(4.16667,0,0,4.16667,486.864,279.358)"><path d="M0,66.725C-7.155,67.602 -14.415,69.4 -21.564,72.062L-17.4,58.567C-11.815,56.781 -6.197,55.592 -0.646,55.034C4.792,54.487 10.142,54.543 15.309,55.162L20.22,66.733C13.77,65.892 6.969,65.871 0,66.725M-10.664,36.739C-7.669,36.198 -4.684,35.812 -1.718,35.621C1.217,35.432 4.126,35.434 6.998,35.581L11.438,46.043C7.333,45.766 3.129,45.793 -1.136,46.152C-5.469,46.518 -9.843,47.223 -14.215,48.247L-10.664,36.739ZM2.986,26.132C1.257,26.108 -0.485,26.131 -2.236,26.213C-4.001,26.296 -5.77,26.439 -7.545,26.63L-3.023,11.977L2.986,26.132ZM17.523,36.911L13.518,26.956L2.1,-1.442C5.32,-3.568 7.449,-7.215 7.449,-11.363C7.449,-17.928 2.126,-23.251 -4.44,-23.251C-11.004,-23.251 -16.328,-17.928 -16.328,-11.363C-16.328,-6.795 -13.746,-2.835 -9.966,-0.844L-18.792,28.564L-22.13,39.661L-37.263,89.976C-25.34,81.836 -12.279,76.844 0.46,75.079C12.623,73.396 24.297,74.683 34.396,78.846L17.523,36.911Z" style="fill:rgb(35,31,32);fill-rule:nonzero;"/></g><g transform="matrix(4.16667,0,0,4.16667,482.697,275.191)"><path d="M0,66.725C-7.155,67.602 -14.415,69.4 -21.564,72.062L-17.4,58.567C-11.815,56.781 -6.197,55.592 -0.646,55.034C4.792,54.487 10.142,54.543 15.309,55.162L20.22,66.733C13.77,65.892 6.969,65.871 0,66.725M-10.664,36.739C-7.669,36.198 -4.684,35.812 -1.718,35.621C1.217,35.432 4.126,35.434 6.998,35.581L11.438,46.043C7.333,45.766 3.129,45.793 -1.136,46.152C-5.469,46.518 -9.843,47.223 -14.215,48.247L-10.664,36.739ZM2.986,26.132C1.257,26.108 -0.485,26.131 -2.236,26.213C-4.001,26.296 -5.77,26.439 -7.545,26.63L-3.023,11.977L2.986,26.132ZM17.523,36.911L13.518,26.956L2.1,-1.442C5.32,-3.568 7.449,-7.215 7.449,-11.363C7.449,-17.928 2.126,-23.251 -4.44,-23.251C-11.004,-23.251 -16.328,-17.928 -16.328,-11.363C-16.328,-6.795 -13.746,-2.835 -9.966,-0.844L-18.792,28.564L-22.13,39.661L-37.263,89.976C-25.34,81.836 -12.279,76.844 0.46,75.079C12.623,73.396 24.297,74.683 34.396,78.846L17.523,36.911Z" style="fill:white;fill-rule:nonzero;"/></g><g transform="matrix(4.16667,0,0,4.16667,698.699,142.616)"><path d="M0,40.421C-0.382,40.421 -0.77,40.372 -1.157,40.271C-3.563,39.633 -4.996,37.166 -4.359,34.76C-3.125,30.105 -2.5,25.286 -2.5,20.441C-2.5,15.602 -3.123,10.792 -4.351,6.147C-4.987,3.741 -3.552,1.275 -1.146,0.639C1.261,0 3.726,1.438 4.362,3.844C5.789,9.24 6.512,14.824 6.512,20.441C6.512,26.066 5.786,31.659 4.353,37.068C3.818,39.087 1.995,40.421 0,40.421" style="fill:rgb(140,198,63);fill-rule:nonzero;"/></g><g transform="matrix(4.16667,0,0,4.16667,631.025,160.589)"><path d="M0,31.796C-0.382,31.796 -0.77,31.747 -1.156,31.646C-3.562,31.008 -4.996,28.541 -4.359,26.136C-3.496,22.874 -3.058,19.507 -3.058,16.127C-3.058,12.753 -3.493,9.395 -4.351,6.145C-4.986,3.738 -3.551,1.273 -1.145,0.638C1.261,0 3.728,1.439 4.363,3.844C5.419,7.845 5.955,11.977 5.955,16.127C5.955,20.285 5.416,24.429 4.353,28.442C3.818,30.462 1.995,31.796 0,31.796" style="fill:rgb(140,198,63);fill-rule:nonzero;"/></g><g transform="matrix(4.16667,0,0,4.16667,563.37,178.558)"><path d="M0,23.171C-0.381,23.171 -0.769,23.123 -1.155,23.021C-3.561,22.385 -4.996,19.918 -4.359,17.513C-3.868,15.651 -3.618,13.734 -3.618,11.815C-3.618,9.899 -3.865,7.99 -4.352,6.144C-4.986,3.736 -3.55,1.272 -1.144,0.637C1.26,0 3.728,1.438 4.363,3.845C5.047,6.442 5.395,9.123 5.395,11.815C5.395,14.512 5.044,17.204 4.354,19.816C3.819,21.836 1.995,23.171 0,23.171" style="fill:rgb(140,198,63);fill-rule:nonzero;"/></g><g transform="matrix(4.16667,0,0,4.16667,229.631,142.718)"><path d="M0,40.372C-1.997,40.372 -3.821,39.035 -4.354,37.014C-5.776,31.621 -6.497,26.047 -6.497,20.445C-6.497,14.828 -5.773,9.242 -4.345,3.843C-3.708,1.437 -1.243,0 1.164,0.639C3.57,1.275 5.004,3.741 4.368,6.147C3.139,10.795 2.516,15.605 2.516,20.445C2.516,25.271 3.136,30.073 4.36,34.717C4.995,37.123 3.558,39.588 1.152,40.223C0.767,40.324 0.38,40.372 0,40.372" style="fill:rgb(140,198,63);fill-rule:nonzero;"/></g><g transform="matrix(4.16667,0,0,4.16667,364.993,178.524)"><path d="M0,23.183C-1.996,23.183 -3.82,21.847 -4.354,19.827C-5.04,17.229 -5.388,14.546 -5.388,11.852C-5.388,9.152 -5.037,6.457 -4.345,3.843C-3.708,1.437 -1.242,0 1.164,0.639C3.57,1.276 5.004,3.743 4.368,6.148C3.875,8.01 3.625,9.929 3.625,11.852C3.625,13.77 3.872,15.679 4.36,17.526C4.995,19.932 3.56,22.398 1.153,23.033C0.768,23.135 0.381,23.183 0,23.183" style="fill:rgb(140,198,63);fill-rule:nonzero;"/></g><g transform="matrix(4.16667,0,0,4.16667,297.323,160.644)"><path d="M0,31.772C-1.997,31.772 -3.821,30.436 -4.354,28.415C-5.41,24.416 -5.945,20.287 -5.945,16.143C-5.945,11.99 -5.406,7.849 -4.344,3.835C-3.707,1.429 -1.239,0 1.165,0.632C3.571,1.269 5.005,3.736 4.369,6.142C3.505,9.403 3.068,12.768 3.068,16.143C3.068,19.511 3.502,22.866 4.36,26.116C4.995,28.522 3.559,30.987 1.153,31.623C0.768,31.724 0.38,31.772 0,31.772" style="fill:rgb(140,198,63);fill-rule:nonzero;"/></g><g transform="matrix(4.16667,0,0,4.16667,482.697,275.191)"><path d="M0,66.725C-7.155,67.602 -14.415,69.4 -21.564,72.062L-17.4,58.567C-11.815,56.781 -6.197,55.592 -0.646,55.034C4.792,54.487 10.142,54.543 15.309,55.162L20.22,66.733C13.77,65.892 6.969,65.871 0,66.725M-10.664,36.739C-7.669,36.198 -4.684,35.812 -1.718,35.621C1.217,35.432 4.126,35.434 6.998,35.581L11.438,46.043C7.333,45.766 3.129,45.793 -1.136,46.152C-5.469,46.518 -9.843,47.223 -14.215,48.247L-10.664,36.739ZM2.986,26.132C1.257,26.108 -0.485,26.131 -2.236,26.213C-4.001,26.296 -5.77,26.439 -7.545,26.63L-3.023,11.977L2.986,26.132ZM17.523,36.911L13.518,26.956L2.1,-1.442C5.32,-3.568 7.449,-7.215 7.449,-11.363C7.449,-17.928 2.126,-23.251 -4.44,-23.251C-11.004,-23.251 -16.328,-17.928 -16.328,-11.363C-16.328,-6.795 -13.746,-2.835 -9.966,-0.844L-18.792,28.564L-22.13,39.661L-37.263,89.976C-25.34,81.836 -12.279,76.844 0.46,75.079C12.623,73.396 24.297,74.683 34.396,78.846L17.523,36.911Z" style="fill:white;fill-rule:nonzero;"/></g></g><defs><linearGradient id="_Linear1" x1="0" y1="0" x2="1" y2="0" gradientUnits="userSpaceOnUse" gradientTransform="matrix(1,0,0,-1,0,-4.59223e-06)"><stop offset="0" style="stop-color:rgb(6,103,56);stop-opacity:1"/><stop offset="1" style="stop-color:rgb(0,47,12);stop-opacity:1"/></linearGradient></defs></svg>